<svg width="95" height="19" viewBox="0 0 95 19" fill="none" xmlns="http://www.w3.org/2000/svg">
<path d="M1.478 5.474C1.03 5.474 0.698667 5.432 0.484 5.348C0.278667 5.25467 0.143333 5.14733 0.0780001 5.026C0.0220001 4.89533 -0.00599997 4.77867 -0.00599997 4.676C-0.00599997 4.54533 0.0686667 4.396 0.218 4.228C0.367333 4.05067 0.656667 3.92 1.086 3.836C1.51533 3.74267 2.024 3.65867 2.612 3.584C3.2 3.5 3.82533 3.43 4.488 3.374C5.15067 3.30867 5.82267 3.25267 6.504 3.206C7.18533 3.15933 7.834 3.12667 8.45 3.108C9.066 3.08 9.612 3.066 10.088 3.066C10.5827 3.066 10.9653 3.094 11.236 3.15C11.5067 3.206 11.698 3.276 11.81 3.36C11.9313 3.444 12.0013 3.53267 12.02 3.626C12.048 3.71933 12.062 3.808 12.062 3.892C12.062 3.91067 12.062 3.92467 12.062 3.934C12.062 4.046 12.034 4.16733 11.978 4.298C11.9313 4.42867 11.824 4.54067 11.656 4.634C11.488 4.718 11.236 4.76 10.9 4.76C10.7787 4.76 10.508 4.77867 10.088 4.816C9.668 4.85333 9.15467 4.9 8.548 4.956C7.94133 5.012 7.29733 5.068 6.616 5.124C6.51333 5.544 6.39667 6.034 6.266 6.594C6.14467 7.154 6.01867 7.742 5.888 8.358C5.76667 8.974 5.65 9.58067 5.538 10.178C5.426 10.766 5.33267 11.312 5.258 11.816C5.18333 12.3107 5.132 12.7167 5.104 13.034C5.06667 13.4633 4.94067 13.7667 4.726 13.944C4.52067 14.112 4.31533 14.196 4.11 14.196C3.96067 14.196 3.81133 14.1633 3.662 14.098C3.51267 14.042 3.39133 13.916 3.298 13.72C3.20467 13.5147 3.158 13.2113 3.158 12.81C3.158 12.3993 3.19533 11.8953 3.27 11.298C3.34467 10.6913 3.44267 10.0427 3.564 9.352C3.69467 8.66133 3.83933 7.966 3.998 7.266C4.166 6.566 4.33867 5.91267 4.516 5.306C3.89067 5.35267 3.312 5.39467 2.78 5.432C2.248 5.46 1.814 5.474 1.478 5.474ZM10.2364 14.532C9.93776 14.532 9.66709 14.448 9.42442 14.28C9.18176 14.1213 8.99042 13.9113 8.85042 13.65C8.71042 13.3793 8.64042 13.09 8.64042 12.782C8.64042 12.2033 8.76642 11.6387 9.01842 11.088C9.27976 10.5373 9.62042 10.0147 10.0404 9.52C10.4604 9.02533 10.9178 8.57267 11.4124 8.162C11.9164 7.742 12.4158 7.38267 12.9104 7.084C13.4144 6.78533 13.8718 6.552 14.2824 6.384C14.7024 6.216 15.0291 6.132 15.2624 6.132C15.5331 6.132 15.7524 6.19267 15.9204 6.314C16.0978 6.426 16.1864 6.60333 16.1864 6.846C16.1864 6.92067 16.1678 6.98133 16.1304 7.028C16.2518 7.056 16.3498 7.126 16.4244 7.238C16.4991 7.35 16.5364 7.518 16.5364 7.742C16.5364 7.83533 16.5131 8.078 16.4664 8.47C16.4198 8.862 16.3684 9.338 16.3124 9.898C16.2658 10.458 16.2424 11.0413 16.2424 11.648C16.2424 11.7413 16.2564 11.8253 16.2844 11.9C16.3124 11.9653 16.3731 11.998 16.4664 11.998C16.8398 11.998 17.2178 11.9233 17.6004 11.774C17.9924 11.6153 18.3704 11.424 18.7344 11.2C19.1078 10.9667 19.4438 10.738 19.7424 10.514C20.0504 10.2807 20.3071 10.0893 20.5124 9.94C20.7271 9.78133 20.8671 9.702 20.9324 9.702C21.2498 9.702 21.4084 9.86067 21.4084 10.178C21.4084 10.262 21.3058 10.4393 21.1004 10.71C20.9044 10.9713 20.6338 11.2747 20.2884 11.62C19.9431 11.956 19.5558 12.292 19.1264 12.628C18.7064 12.9547 18.2678 13.2253 17.8104 13.44C17.3624 13.6547 16.9284 13.762 16.5084 13.762C15.9951 13.762 15.6031 13.6407 15.3324 13.398C15.0711 13.1553 14.8844 12.8287 14.7724 12.418C14.6698 11.998 14.6138 11.5267 14.6044 11.004C14.1284 11.6853 13.6338 12.292 13.1204 12.824C12.6164 13.3467 12.1171 13.762 11.6224 14.07C11.1278 14.378 10.6658 14.532 10.2364 14.532ZM15.1924 7.518C14.2778 7.95667 13.4564 8.46067 12.7284 9.03C12.0004 9.59 11.4218 10.178 10.9924 10.794C10.5724 11.41 10.3624 12.0027 10.3624 12.572C10.3624 12.7307 10.4371 12.81 10.5864 12.81C10.7638 12.81 10.9971 12.7073 11.2864 12.502C11.5851 12.2967 11.9071 12.026 12.2524 11.69C12.5978 11.3447 12.9431 10.962 13.2884 10.542C13.6338 10.1127 13.9558 9.674 14.2544 9.226C14.5531 8.778 14.7911 8.34867 14.9684 7.938C15.0338 7.78867 15.1084 7.64867 15.1924 7.518ZM21.2456 18.032C20.5456 18.032 20.0136 17.9807 19.6496 17.878C19.2949 17.7753 19.0522 17.64 18.9216 17.472C18.7909 17.3133 18.7256 17.15 18.7256 16.982C18.7256 16.7487 18.8002 16.5573 18.9496 16.408C19.1082 16.2587 19.3136 16.184 19.5656 16.184C19.7336 16.184 19.9762 16.2073 20.2936 16.254C20.6109 16.3007 20.9282 16.324 21.2456 16.324C22.1789 16.324 22.9489 16.1 23.5556 15.652C24.1622 15.2133 24.6382 14.546 24.9836 13.65C25.3289 12.7447 25.5669 11.606 25.6976 10.234C25.0536 11.2887 24.3396 12.1333 23.5556 12.768C22.7809 13.4027 21.9736 13.72 21.1336 13.72C20.1442 13.72 19.6496 13.2347 19.6496 12.264C19.6496 11.7973 19.7756 11.3073 20.0276 10.794C20.2796 10.2807 20.6156 9.772 21.0356 9.268C21.4556 8.764 21.9176 8.288 22.4216 7.84C22.9256 7.38267 23.4296 6.98133 23.9336 6.636C24.4469 6.29067 24.9229 6.02 25.3616 5.824C25.8002 5.61867 26.1549 5.516 26.4256 5.516C26.6402 5.516 26.8269 5.55333 26.9856 5.628C27.1536 5.70267 27.2842 5.852 27.3776 6.076C27.4709 6.29067 27.5176 6.608 27.5176 7.028C27.5176 8.19467 27.4756 9.324 27.3916 10.416C27.3076 11.4987 27.1442 12.502 26.9016 13.426C26.6589 14.35 26.3042 15.1573 25.8376 15.848C25.3802 16.5387 24.7782 17.0753 24.0316 17.458C23.2849 17.8407 22.3562 18.032 21.2456 18.032ZM21.4416 11.984C21.4416 12.0493 21.4696 12.082 21.5256 12.082C21.7122 12.082 21.9642 11.984 22.2816 11.788C22.5989 11.5827 22.9396 11.312 23.3036 10.976C23.6769 10.6307 24.0409 10.248 24.3956 9.828C24.7502 9.39867 25.0629 8.95533 25.3336 8.498C25.6136 8.04067 25.8142 7.59733 25.9356 7.168C25.4502 7.448 24.9462 7.77467 24.4236 8.148C23.9102 8.512 23.4249 8.904 22.9676 9.324C22.5196 9.744 22.1509 10.1827 21.8616 10.64C21.5816 11.088 21.4416 11.536 21.4416 11.984ZM32.6609 14.7C31.8209 14.7 31.1583 14.4433 30.6729 13.93C30.1969 13.4073 29.9589 12.6653 29.9589 11.704C29.9589 11.1813 30.0289 10.57 30.1689 9.87C30.3089 9.16067 30.4909 8.414 30.7149 7.63C30.9483 6.83667 31.1956 6.05267 31.4569 5.278C31.7276 4.50333 31.9936 3.78467 32.2549 3.122C32.5163 2.45933 32.7449 1.904 32.9409 1.456C33.1089 1.11067 33.3469 0.938 33.6549 0.938C33.8509 0.938 34.0096 0.998666 34.1309 1.12C34.2616 1.24133 34.3269 1.43733 34.3269 1.708C34.3269 1.83867 34.2616 2.12333 34.1309 2.562C34.0003 3.00067 33.8276 3.542 33.6129 4.186C33.4076 4.82067 33.1836 5.50667 32.9409 6.244C32.7076 6.98133 32.4836 7.72333 32.2689 8.47C32.0636 9.21667 31.8956 9.92133 31.7649 10.584C31.6343 11.2373 31.5689 11.7927 31.5689 12.25C31.5689 12.4367 31.6203 12.586 31.7229 12.698C31.8349 12.81 31.9796 12.866 32.1569 12.866C32.5396 12.866 32.9316 12.796 33.3329 12.656C33.7436 12.516 34.1449 12.3387 34.5369 12.124C34.9383 11.9093 35.3163 11.6807 35.6709 11.438C36.0256 11.1953 36.3429 10.9667 36.6229 10.752C36.9123 10.528 37.1456 10.3507 37.3229 10.22C37.5563 10.0427 37.7149 9.954 37.7989 9.954C38.1163 9.954 38.2749 10.108 38.2749 10.416C38.2749 10.4907 38.1816 10.6447 37.9949 10.878C37.8363 11.0833 37.6123 11.3447 37.3229 11.662C37.0336 11.9793 36.6976 12.3153 36.3149 12.67C35.9416 13.0153 35.5403 13.342 35.1109 13.65C34.6909 13.958 34.2709 14.21 33.8509 14.406C33.4309 14.602 33.0343 14.7 32.6609 14.7ZM38.3594 14.21C38.098 14.21 37.8647 14.1213 37.6594 13.944C37.4634 13.7667 37.3654 13.4773 37.3654 13.076C37.3654 12.8613 37.3934 12.558 37.4494 12.166C37.5147 11.774 37.5987 11.3493 37.7014 10.892C37.804 10.4253 37.916 9.96333 38.0374 9.506C38.168 9.04867 38.294 8.64267 38.4154 8.288C38.5367 7.924 38.644 7.65333 38.7374 7.476C38.8587 7.26133 38.9707 7.13067 39.0734 7.084C39.1854 7.028 39.2927 7 39.3954 7C39.582 7 39.7547 7.056 39.9134 7.168C40.0814 7.28 40.1654 7.52733 40.1654 7.91C40.1654 8.05933 40.1374 8.302 40.0814 8.638C40.0254 8.96467 39.9554 9.34733 39.8714 9.786C39.7874 10.2247 39.694 10.6773 39.5914 11.144C39.498 11.6107 39.4047 12.054 39.3114 12.474C39.2274 12.8847 39.1574 13.23 39.1014 13.51C39.0547 13.7433 38.9567 13.916 38.8074 14.028C38.6674 14.1493 38.518 14.21 38.3594 14.21ZM39.9694 5.614C39.6614 5.614 39.3767 5.52533 39.1154 5.348C38.854 5.16133 38.7234 4.87667 38.7234 4.494C38.7234 4.17667 38.8027 3.92 38.9614 3.724C39.12 3.528 39.3067 3.388 39.5214 3.304C39.7454 3.21067 39.9414 3.164 40.1094 3.164C40.2774 3.164 40.464 3.20133 40.6694 3.276C40.8747 3.34133 41.052 3.46733 41.2014 3.654C41.36 3.83133 41.4394 4.088 41.4394 4.424C41.4394 4.648 41.36 4.85333 41.2014 5.04C41.0427 5.21733 40.8467 5.35733 40.6134 5.46C40.3894 5.56267 40.1747 5.614 39.9694 5.614ZM43.0489 14.532C42.7503 14.532 42.4796 14.448 42.2369 14.28C41.9943 14.1213 41.8029 13.9113 41.6629 13.65C41.5229 13.3793 41.4529 13.09 41.4529 12.782C41.4529 12.2033 41.5789 11.6387 41.8309 11.088C42.0923 10.5373 42.4329 10.0147 42.8529 9.52C43.2729 9.02533 43.7303 8.57267 44.2249 8.162C44.7289 7.742 45.2283 7.38267 45.7229 7.084C46.2269 6.78533 46.6843 6.552 47.0949 6.384C47.5149 6.216 47.8416 6.132 48.0749 6.132C48.3456 6.132 48.5649 6.19267 48.7329 6.314C48.9103 6.426 48.9989 6.60333 48.9989 6.846C48.9989 6.92067 48.9803 6.98133 48.9429 7.028C49.0643 7.056 49.1623 7.126 49.2369 7.238C49.3116 7.35 49.3489 7.518 49.3489 7.742C49.3489 7.83533 49.3256 8.078 49.2789 8.47C49.2323 8.862 49.1809 9.338 49.1249 9.898C49.0783 10.458 49.0549 11.0413 49.0549 11.648C49.0549 11.7413 49.0689 11.8253 49.0969 11.9C49.1249 11.9653 49.1856 11.998 49.2789 11.998C49.6523 11.998 50.0303 11.9233 50.4129 11.774C50.8049 11.6153 51.1829 11.424 51.5469 11.2C51.9203 10.9667 52.2563 10.738 52.5549 10.514C52.8629 10.2807 53.1196 10.0893 53.3249 9.94C53.5396 9.78133 53.6796 9.702 53.7449 9.702C54.0623 9.702 54.2209 9.86067 54.2209 10.178C54.2209 10.262 54.1183 10.4393 53.9129 10.71C53.7169 10.9713 53.4463 11.2747 53.1009 11.62C52.7556 11.956 52.3683 12.292 51.9389 12.628C51.5189 12.9547 51.0803 13.2253 50.6229 13.44C50.1749 13.6547 49.7409 13.762 49.3209 13.762C48.8076 13.762 48.4156 13.6407 48.1449 13.398C47.8836 13.1553 47.6969 12.8287 47.5849 12.418C47.4823 11.998 47.4263 11.5267 47.4169 11.004C46.9409 11.6853 46.4463 12.292 45.9329 12.824C45.4289 13.3467 44.9296 13.762 44.4349 14.07C43.9403 14.378 43.4783 14.532 43.0489 14.532ZM48.0049 7.518C47.0903 7.95667 46.2689 8.46067 45.5409 9.03C44.8129 9.59 44.2343 10.178 43.8049 10.794C43.3849 11.41 43.1749 12.0027 43.1749 12.572C43.1749 12.7307 43.2496 12.81 43.3989 12.81C43.5763 12.81 43.8096 12.7073 44.0989 12.502C44.3976 12.2967 44.7196 12.026 45.0649 11.69C45.4103 11.3447 45.7556 10.962 46.1009 10.542C46.4463 10.1127 46.7683 9.674 47.0669 9.226C47.3656 8.778 47.6036 8.34867 47.7809 7.938C47.8463 7.78867 47.9209 7.64867 48.0049 7.518ZM54.528 15.568C54.2947 15.568 54.094 15.498 53.926 15.358C53.758 15.2273 53.6834 14.9567 53.702 14.546C53.7207 14.0887 53.7534 13.6127 53.8 13.118C53.8467 12.6233 53.898 12.1613 53.954 11.732C54.0754 10.7893 54.1034 10.0613 54.038 9.548C53.982 9.02533 53.8374 8.652 53.604 8.428C53.38 8.204 53.0767 8.05467 52.694 7.98C52.5074 7.94267 52.358 7.87267 52.246 7.77C52.134 7.658 52.078 7.51333 52.078 7.336C52.078 7.10267 52.1714 6.94867 52.358 6.874C52.5354 6.79933 52.764 6.762 53.044 6.762C53.2587 6.762 53.534 6.776 53.87 6.804C54.2154 6.82267 54.584 6.83667 54.976 6.846C55.3027 5.77267 55.6714 4.886 56.082 4.186C56.4927 3.486 56.9407 2.93533 57.426 2.534C57.9114 2.12333 58.4247 1.83867 58.966 1.68C59.5074 1.512 60.0674 1.428 60.646 1.428C61.3647 1.428 61.724 1.68467 61.724 2.198C61.724 2.45 61.6027 2.64133 61.36 2.772C61.1174 2.90267 60.7487 3.01 60.254 3.094C59.666 3.19667 59.148 3.388 58.7 3.668C58.2614 3.948 57.874 4.34467 57.538 4.858C57.2114 5.37133 56.922 6.034 56.67 6.846C57.9674 6.818 59.0314 6.748 59.862 6.636C60.6927 6.524 61.332 6.41667 61.78 6.314C62.2374 6.202 62.5547 6.146 62.732 6.146C62.984 6.146 63.138 6.20667 63.194 6.328C63.2594 6.44933 63.292 6.58 63.292 6.72C63.292 6.87867 63.1427 7.042 62.844 7.21C62.648 7.322 62.3354 7.448 61.906 7.588C61.4767 7.71867 60.9727 7.84933 60.394 7.98C59.8154 8.10133 59.204 8.204 58.56 8.288C57.9254 8.36267 57.3047 8.4 56.698 8.4C56.5487 8.4 56.4134 8.4 56.292 8.4C56.1894 8.94133 56.0867 9.51533 55.984 10.122C55.8907 10.7193 55.8067 11.3027 55.732 11.872C55.6574 12.4413 55.592 12.9593 55.536 13.426C55.4894 13.8927 55.4614 14.266 55.452 14.546C55.4427 14.8913 55.354 15.148 55.186 15.316C55.018 15.484 54.7987 15.568 54.528 15.568ZM61.5332 13.21C61.2719 13.21 61.0385 13.1213 60.8332 12.944C60.6372 12.7667 60.5392 12.4773 60.5392 12.076C60.5392 11.8613 60.5672 11.558 60.6232 11.166C60.6885 10.774 60.7725 10.3493 60.8752 9.892C60.9779 9.42533 61.0899 8.96333 61.2112 8.506C61.3419 8.04867 61.4679 7.64267 61.5892 7.288C61.7105 6.924 61.8179 6.65333 61.9112 6.476C62.0325 6.26133 62.1445 6.13067 62.2472 6.084C62.3592 6.028 62.4665 6 62.5692 6C62.7559 6 62.9285 6.056 63.0872 6.168C63.2552 6.28 63.3392 6.52733 63.3392 6.91C63.3392 7.05933 63.3112 7.302 63.2552 7.638C63.1992 7.96467 63.1292 8.34733 63.0452 8.786C62.9612 9.22467 62.8679 9.67733 62.7652 10.144C62.6719 10.6107 62.5785 11.054 62.4852 11.474C62.4012 11.8847 62.3312 12.23 62.2752 12.51C62.2285 12.7433 62.1305 12.916 61.9812 13.028C61.8412 13.1493 61.6919 13.21 61.5332 13.21ZM63.1432 4.614C62.8352 4.614 62.5505 4.52533 62.2892 4.348C62.0279 4.16133 61.8972 3.87667 61.8972 3.494C61.8972 3.17667 61.9765 2.92 62.1352 2.724C62.2939 2.528 62.4805 2.388 62.6952 2.304C62.9192 2.21067 63.1152 2.164 63.2832 2.164C63.4512 2.164 63.6379 2.20133 63.8432 2.276C64.0485 2.34133 64.2259 2.46733 64.3752 2.654C64.5339 2.83133 64.6132 3.088 64.6132 3.424C64.6132 3.648 64.5339 3.85333 64.3752 4.04C64.2165 4.21733 64.0205 4.35733 63.7872 4.46C63.5632 4.56267 63.3485 4.614 63.1432 4.614ZM71.9229 7.938C71.9229 8.54467 71.5776 9.14667 70.8869 9.744C70.2056 10.332 69.1463 10.8547 67.7089 11.312C67.7089 11.3213 67.7089 11.3353 67.7089 11.354C67.7089 11.662 67.7463 11.9093 67.8209 12.096C67.8956 12.2733 68.0589 12.362 68.3109 12.362C68.6843 12.362 69.0996 12.25 69.5569 12.026C70.0236 11.7927 70.5043 11.4987 70.9989 11.144C71.5029 10.78 71.9929 10.3973 72.4689 9.996C72.9449 9.59467 73.3836 9.21667 73.7849 8.862C74.1956 8.498 74.5409 8.204 74.8209 7.98C75.1103 7.74667 75.3016 7.63 75.3949 7.63C75.5909 7.63 75.7543 7.70467 75.8849 7.854C76.0249 8.00333 76.0949 8.22733 76.0949 8.526C76.0949 8.694 76.0856 8.89467 76.0669 9.128C76.4776 8.41867 76.9536 7.83533 77.4949 7.378C78.0363 6.91133 78.5683 6.566 79.0909 6.342C79.6229 6.10867 80.0756 5.992 80.4489 5.992C80.8689 5.992 81.1536 6.076 81.3029 6.244C81.4523 6.40267 81.5269 6.57067 81.5269 6.748C81.5269 6.85067 81.5036 6.95333 81.4569 7.056C81.4196 7.14933 81.3169 7.252 81.1489 7.364C80.9903 7.476 80.7243 7.60667 80.3509 7.756C79.8563 7.94267 79.3849 8.162 78.9369 8.414C78.4983 8.666 78.0923 9.01133 77.7189 9.45C77.3549 9.87933 77.0236 10.458 76.7249 11.186C76.4356 11.9047 76.1929 12.8287 75.9969 13.958C75.9316 14.2753 75.8289 14.49 75.6889 14.602C75.5489 14.7233 75.3856 14.784 75.1989 14.784C75.1803 14.784 75.1476 14.784 75.1009 14.784C75.0169 14.7933 74.9283 14.784 74.8349 14.756C74.7509 14.7373 74.6669 14.658 74.5829 14.518C74.5083 14.3873 74.4476 14.1587 74.4009 13.832C74.3543 13.5053 74.3309 13.0387 74.3309 12.432C74.3309 12.068 74.3449 11.6853 74.3729 11.284C74.4103 10.8733 74.4569 10.4487 74.5129 10.01C74.0369 10.4767 73.5283 10.948 72.9869 11.424C72.4456 11.9 71.8856 12.3387 71.3069 12.74C70.7376 13.132 70.1776 13.4493 69.6269 13.692C69.0856 13.9347 68.5816 14.056 68.1149 14.056C67.4896 14.056 66.9763 13.8553 66.5749 13.454C66.1829 13.0433 65.9869 12.4133 65.9869 11.564C65.9869 10.724 66.0989 9.96333 66.3229 9.282C66.5563 8.59133 66.8549 7.99867 67.2189 7.504C67.5829 7.00933 67.9703 6.63133 68.3809 6.37C68.8009 6.09933 69.1929 5.964 69.5569 5.964C70.3316 5.964 70.9196 6.15067 71.3209 6.524C71.7223 6.888 71.9229 7.35933 71.9229 7.938ZM67.8909 10.066C68.1336 9.94467 68.3903 9.80467 68.6609 9.646C68.9409 9.478 69.2023 9.30533 69.4449 9.128C69.6876 8.94133 69.8836 8.75933 70.0329 8.582C70.1916 8.40467 70.2709 8.23667 70.2709 8.078C70.2709 7.81667 70.1963 7.658 70.0469 7.602C69.9069 7.53667 69.7156 7.504 69.4729 7.504C69.2209 7.504 68.9923 7.63933 68.7869 7.91C68.5816 8.17133 68.4043 8.498 68.2549 8.89C68.1056 9.282 67.9843 9.674 67.8909 10.066ZM81.5299 14.616C81.2966 14.616 81.0959 14.532 80.9279 14.364C80.7692 14.196 80.6899 13.9533 80.6899 13.636C80.6899 13.496 80.7086 13.2673 80.7459 12.95C80.7926 12.6233 80.8486 12.25 80.9139 11.83C80.9886 11.41 81.0586 10.9713 81.1239 10.514C81.1986 10.0567 81.2592 9.62267 81.3059 9.212C81.3619 8.80133 81.3992 8.45133 81.4179 8.162C81.4366 7.80733 81.5299 7.55533 81.6979 7.406C81.8659 7.24733 82.0666 7.168 82.2999 7.168C82.4866 7.168 82.6546 7.21467 82.8039 7.308C82.9626 7.392 83.0606 7.574 83.0979 7.854C83.1446 8.12467 83.1492 8.51667 83.1119 9.03C83.5226 8.28333 83.9379 7.616 84.3579 7.028C84.7872 6.44 85.2352 5.97333 85.7019 5.628C86.4766 5.04 87.1766 4.746 87.8019 4.746C88.1566 4.746 88.3899 4.82533 88.5019 4.984C88.6139 5.14267 88.6699 5.306 88.6699 5.474C88.6699 5.586 88.6419 5.68867 88.5859 5.782C88.5392 5.87533 88.4366 5.97333 88.2779 6.076C88.1192 6.17867 87.8766 6.314 87.5499 6.482C87.1112 6.706 86.6772 7 86.2479 7.364C85.8279 7.728 85.4079 8.19467 84.9879 8.764C84.5679 9.33333 84.1432 10.0333 83.7139 10.864C83.2846 11.6947 82.8412 12.684 82.3839 13.832C82.2999 14.1493 82.1786 14.3593 82.0199 14.462C81.8706 14.5647 81.7072 14.616 81.5299 14.616ZM90.0859 14.462C89.4232 14.462 88.8912 14.2287 88.4899 13.762C88.0885 13.286 87.8879 12.6513 87.8879 11.858C87.8879 11.606 87.9205 11.3493 87.9859 11.088C88.0605 10.8267 88.1492 10.584 88.2519 10.36C88.1959 10.276 88.1492 10.1687 88.1119 10.038C88.0839 9.898 88.0699 9.73467 88.0699 9.548C88.0699 8.94133 88.1772 8.386 88.3919 7.882C88.6065 7.36867 88.8959 6.92533 89.2599 6.552C89.6239 6.17867 90.0252 5.88933 90.4639 5.684C90.9025 5.47867 91.3459 5.376 91.7939 5.376C92.5592 5.376 93.1845 5.63267 93.6699 6.146C94.1645 6.65933 94.4119 7.45733 94.4119 8.54C94.4119 9.08133 94.3279 9.632 94.1599 10.192C93.9919 10.752 93.7632 11.2887 93.4739 11.802C93.1939 12.306 92.8672 12.7587 92.4939 13.16C92.1299 13.5613 91.7379 13.8787 91.3179 14.112C90.9072 14.3453 90.4965 14.462 90.0859 14.462ZM89.8619 9.73C89.9085 9.83267 89.9319 9.954 89.9319 10.094C89.9319 10.234 89.9039 10.3787 89.8479 10.528C89.7919 10.6773 89.7359 10.878 89.6799 11.13C89.6239 11.3727 89.5959 11.7227 89.5959 12.18C89.5959 12.3013 89.6099 12.404 89.6379 12.488C89.6752 12.5627 89.7545 12.6 89.8759 12.6C90.1932 12.6 90.4919 12.4973 90.7719 12.292C91.0612 12.0867 91.3179 11.816 91.5419 11.48C91.7752 11.144 91.9712 10.7707 92.1299 10.36C92.2979 9.94 92.4239 9.51533 92.5079 9.086C92.6012 8.64733 92.6479 8.24133 92.6479 7.868C92.6479 7.62533 92.6012 7.45733 92.5079 7.364C92.4145 7.27067 92.2512 7.224 92.0179 7.224C91.7005 7.224 91.3739 7.32667 91.0379 7.532C90.7112 7.728 90.4359 7.99867 90.2119 8.344C89.9879 8.68 89.8759 9.06267 89.8759 9.492C89.8759 9.576 89.8712 9.65533 89.8619 9.73Z" fill="#F6F7EB"/>
</svg>
